<svg xmlns="http://www.w3.org/2000/svg" viewBox="0 0 122 38">
    <polygon id="Rectangle-Copy-3" points="23.2 0 122 0 122 38 0 38 23.2 0" style="fill: #0033a0" />
    <path id="Fill-9" d="M101.8,19.7c.2-2.1,1.1-3.3,2.5-3.3,1.9,0,2.4,1.8,2.5,3.3Zm8,4.6a8.34,8.34,0,0,1-4.6,1.7c-2,0-3.3-1.5-3.5-3.8h8.7v-1c0-5-2.1-7.6-6.1-7.6a5.72,5.72,0,0,0-4.4,1.7,8.51,8.51,0,0,0-2,6.1c0,4.7,2.6,7.6,6.8,7.6a9.67,9.67,0,0,0,5.5-1.7h.1l-.5-3.1v.1Z" style="fill: #fff" />
    <g id="Allstate-logo-2">
        <path id="Fill-1" d="M114.7,26.5h-.2V27h.2c.1,0,.3-.1.3-.2v-.1a.37.37,0,0,0-.3-.2Zm.5,1.5-.5-.8h-.2V28h-.3V26.2h.5c.3,0,.6.1.6.4v.1a.55.55,0,0,1-.3.5l.5.8Zm-.5-2.3a1.26,1.26,0,0,0-1.3,1.3v.2a1.3,1.3,0,1,0,2.6,0,1.21,1.21,0,0,0-1.2-1.4c0-.1,0-.1-.1-.1Zm0,3.1a1.39,1.39,0,0,1-1.5-1.4v-.2a1.5,1.5,0,0,1,3,0h0a1.46,1.46,0,0,1-1.3,1.6Z" style="fill: #fff" />
        <path id="Fill-2" d="M34.9,20.3H30.2l4.7-7.7v7.7Zm-2-11L21,28.8h4l3-5h6.8v5h3.8V9.3Z" style="fill: #fff" />
        <polyline id="Fill-3" points="41.5 9.3 41.5 28.8 45.2 28.8 45.2 9.3 41.5 9.3" style="fill: #fff" />
        <polygon id="Fill-4" points="47.9 9.3 51.7 9.3 51.7 28.8 47.9 28.8 47.9 9.3" style="fill: #fff" />
        <path id="Fill-5" d="M59.9,19.6c-2-.5-2.5-.8-2.4-1.7a1.32,1.32,0,0,1,1.6-1.2h.1a10.18,10.18,0,0,1,4.2,1.2l.2.1.5-3.3H64a11.49,11.49,0,0,0-4.8-1,5.26,5.26,0,0,0-4.1,1.5A4.17,4.17,0,0,0,54,18.1c0,3,1.5,3.9,4.8,4.7,2.2.6,2.6.9,2.6,1.9S60.8,26,59.3,26a9.82,9.82,0,0,1-4.9-1.6l-.2-.1-.5,3.3h.1A11.43,11.43,0,0,0,59.2,29a6,6,0,0,0,4.6-1.5,4,4,0,0,0,1.1-3.1c0-3.2-1.6-4-5-4.8" style="fill: #fff" />
        <path id="Fill-6" d="M74,25.5h-.2a3.4,3.4,0,0,1-1,.1,1.46,1.46,0,0,1-1.6-1.3V17.1h2.7V14H71.2V9.3H67.5V14H65.6v3.2h1.9v7.5c0,2.9,1.5,4.4,4.7,4.4a16.35,16.35,0,0,0,2.2-.2h.2L74,25.5" style="fill: #fff" />
        <path id="Fill-7" d="M80.7,26.1a1.54,1.54,0,0,1-1.5-1.5c0-1.6,1.6-2.7,4.5-3.1v3.2a4.57,4.57,0,0,1-3,1.5h0Zm1.2-12.4a15,15,0,0,0-5.5,1.1h-.1l.5,3.1.2-.1a10,10,0,0,1,4.5-1.1,1.74,1.74,0,0,1,2.1,1.4v1c-5.5.6-8.2,2.5-8.2,5.8A4,4,0,0,0,79,29h.5a6.13,6.13,0,0,0,4.4-1.9l.3,1.6h3.3V18.5c-.1-3.3-1.8-4.9-5.6-4.8Z" style="fill: #fff" />
        <path id="Fill-8" d="M97,25.5h-.2a3.4,3.4,0,0,1-1,.1,1.46,1.46,0,0,1-1.6-1.3V17.1h2.7V14H94.2V9.3H90.5V14H88.6v3.2h1.9v7.5c0,2.9,1.5,4.4,4.7,4.4a16.35,16.35,0,0,0,2.2-.2h.2L97,25.5" style="fill: #fff" />
    </g>
</svg>